<svg width="81" height="12" viewBox="0 0 81 12" fill="none" xmlns="http://www.w3.org/2000/svg">
<path d="M1.88322 6.69121H3.19362L5.68482 11.0112H7.41283L4.82083 6.51841C5.95843 6.11521 6.79362 5.03521 6.79362 3.73921C6.79362 2.61601 6.14562 1.6368 5.22402 1.1472C4.89282 0.974405 4.53282 0.902405 4.15842 0.902405H0.400024V11.0112H1.88322V6.69121ZM5.29602 3.73921C5.29602 4.54561 4.64803 5.208 3.84162 5.208H1.88322V2.28481H3.84162C4.64803 2.28481 5.29602 2.93281 5.29602 3.73921Z" fill="#3A3A43"/>
<path d="M10.6516 10.6224C11.17 10.9104 11.7316 11.0544 12.3076 11.0544C12.6244 11.0544 12.9556 10.9968 13.2868 10.9104C14.1652 10.6512 14.8996 10.0608 15.346 9.24001L14.0356 8.53441C13.7908 8.99521 13.3732 9.32641 12.8692 9.47041C12.3652 9.62881 11.8324 9.57121 11.3572 9.31201C11.1268 9.18241 10.9252 9.00961 10.7668 8.80801L15.7924 7.33921C15.7924 7.33921 15.7636 7.06561 15.634 6.60481C15.5332 6.28801 15.3892 5.98561 15.2164 5.71201C14.8996 5.22241 14.4676 4.81921 13.9636 4.5456C13.1572 4.09921 12.2212 3.99841 11.3284 4.25761C10.45 4.51681 9.71559 5.10721 9.26919 5.92801C8.82279 6.73441 8.72199 7.67041 8.98119 8.56321C8.98119 8.56321 9.28359 9.87361 10.6516 10.6224ZM10.5796 6.63361C10.8244 6.17281 11.242 5.84161 11.746 5.69761C11.9332 5.64001 12.1204 5.61121 12.3076 5.61121C12.6388 5.61121 12.9556 5.69761 13.2436 5.85601C13.4884 5.98561 13.69 6.14401 13.8484 6.36001L10.3492 7.38241C10.378 7.12321 10.45 6.87841 10.5796 6.63361Z" fill="#3A3A43"/>
<path d="M19.9112 11.0976C19.9976 11.0976 20.084 11.0976 20.1704 11.0832C20.9624 11.0256 21.668 10.6656 22.1144 10.104C22.4888 9.64321 22.6616 9.06721 22.5896 8.50561C22.4024 7.00801 20.9624 6.70561 20.1992 6.53281C19.9976 6.48961 19.8104 6.46081 19.6808 6.40321C19.1336 6.18721 19.2488 5.89921 19.292 5.79841C19.3784 5.61121 19.7672 5.45281 20.2136 5.53921C20.2856 5.55361 20.66 5.71201 20.66 5.92801L22.1576 5.89921C22.1288 4.81921 21.1352 4.21441 20.5016 4.08481C19.3784 3.85441 18.2984 4.32961 17.924 5.22241C17.492 6.25921 17.9816 7.31041 19.1048 7.78561C19.3352 7.88641 19.6088 7.94401 19.8824 8.00161C20.7464 8.17441 21.0632 8.31841 21.1064 8.69281C21.1352 8.85121 21.0776 9.00961 20.9624 9.16801C20.7608 9.39841 20.4296 9.57121 20.0408 9.60001C19.3928 9.65761 18.7592 9.29761 18.7016 8.83681L17.2328 9.02401C17.3768 10.2048 18.5576 11.0976 19.9112 11.0976Z" fill="#3A3A43"/>
<path d="M27.0055 11.0976C27.5527 11.0976 28.0567 10.9392 28.4887 10.68V11.0112H29.9863V4.27201H28.4887V8.11681C28.4887 8.93761 27.8263 9.60001 27.0055 9.60001C26.1847 9.60001 25.5223 8.93761 25.5223 8.11681V4.21441H24.0391V8.11681C24.0391 9.75841 25.3639 11.0976 27.0055 11.0976Z" fill="#3A3A43"/>
<path d="M33.3551 7.09441C33.3551 6.27361 33.9599 5.61121 34.7087 5.61121C35.4431 5.61121 36.0479 6.27361 36.0479 7.09441V11.0112H37.5455V7.09441C37.5455 6.27361 38.1503 5.61121 38.8847 5.61121C39.6335 5.61121 40.2383 6.27361 40.2383 7.09441V11.0112H41.7215V7.09441C41.7215 5.45281 40.4543 4.12801 38.8847 4.12801C38.0495 4.12801 37.3151 4.50241 36.7967 5.10721C36.2783 4.50241 35.5295 4.12801 34.7087 4.12801C34.2191 4.12801 33.7583 4.25761 33.3551 4.48801V4.21441H31.8719V11.0112H33.3551V7.09441Z" fill="#3A3A43"/>
<path d="M44.8918 4.21441H43.4086V11.0112H44.8918V4.21441ZM45.1365 2.50081C45.1365 1.968 44.6901 1.53601 44.1573 1.53601C43.6101 1.53601 43.1782 1.968 43.1782 2.50081C43.1782 3.03361 43.6101 3.46561 44.1573 3.46561C44.6901 3.46561 45.1365 3.03361 45.1365 2.50081Z" fill="#3A3A43"/>
<path d="M52.1253 10.9824V9.51361H49.1877L52.3989 4.20001H46.7397V5.65441H49.7781L46.5813 10.9824H52.1253Z" fill="#3A3A43"/>
<path d="M55.6375 10.6224C56.1559 10.9104 56.7175 11.0544 57.2935 11.0544C57.6103 11.0544 57.9415 10.9968 58.2727 10.9104C59.1511 10.6512 59.8855 10.0608 60.3319 9.24001L59.0215 8.53441C58.7767 8.99521 58.3591 9.32641 57.8551 9.47041C57.3511 9.62881 56.8183 9.57121 56.3431 9.31201C56.1127 9.18241 55.9111 9.00961 55.7527 8.80801L60.7783 7.33921C60.7783 7.33921 60.7495 7.06561 60.6199 6.60481C60.5191 6.28801 60.3751 5.98561 60.2023 5.71201C59.8855 5.22241 59.4535 4.81921 58.9495 4.5456C58.1431 4.09921 57.2071 3.99841 56.3143 4.25761C55.4359 4.51681 54.7015 5.10721 54.2551 5.92801C53.8087 6.73441 53.7079 7.67041 53.9671 8.56321C53.9671 8.56321 54.2695 9.87361 55.6375 10.6224ZM55.5655 6.63361C55.8103 6.17281 56.2279 5.84161 56.7319 5.69761C56.9191 5.64001 57.1063 5.61121 57.2935 5.61121C57.6247 5.61121 57.9415 5.69761 58.2295 5.85601C58.4743 5.98561 58.6759 6.14401 58.8343 6.36001L55.3351 7.38241C55.3639 7.12321 55.4359 6.87841 55.5655 6.63361Z" fill="#3A3A43"/>
<path d="M63.702 7.09441C63.702 6.27361 64.3068 5.61121 65.0556 5.61121C65.79 5.61121 66.3948 6.27361 66.3948 7.09441V11.0112H67.8924V7.09441C67.8924 6.27361 68.4972 5.61121 69.2316 5.61121C69.9804 5.61121 70.5852 6.27361 70.5852 7.09441V11.0112H72.0684V7.09441C72.0684 5.45281 70.8012 4.12801 69.2316 4.12801C68.3964 4.12801 67.662 4.50241 67.1436 5.10721C66.6252 4.50241 65.8764 4.12801 65.0556 4.12801C64.566 4.12801 64.1052 4.25761 63.702 4.48801V4.21441H62.2188V11.0112H63.702V7.09441Z" fill="#3A3A43"/>
<path d="M75.325 10.6224C75.8434 10.9104 76.405 11.0544 76.981 11.0544C77.2978 11.0544 77.629 10.9968 77.9602 10.9104C78.8386 10.6512 79.573 10.0608 80.0194 9.24001L78.709 8.53441C78.4642 8.99521 78.0466 9.32641 77.5426 9.47041C77.0386 9.62881 76.5058 9.57121 76.0306 9.31201C75.8002 9.18241 75.5986 9.00961 75.4402 8.80801L80.4658 7.33921C80.4658 7.33921 80.437 7.06561 80.3074 6.60481C80.2066 6.28801 80.0626 5.98561 79.8898 5.71201C79.573 5.22241 79.141 4.81921 78.637 4.5456C77.8306 4.09921 76.8946 3.99841 76.0018 4.25761C75.1234 4.51681 74.389 5.10721 73.9426 5.92801C73.4962 6.73441 73.3954 7.67041 73.6546 8.56321C73.6546 8.56321 73.957 9.87361 75.325 10.6224ZM75.253 6.63361C75.4978 6.17281 75.9154 5.84161 76.4194 5.69761C76.6066 5.64001 76.7938 5.61121 76.981 5.61121C77.3122 5.61121 77.629 5.69761 77.917 5.85601C78.1618 5.98561 78.3634 6.14401 78.5218 6.36001L75.0226 7.38241C75.0514 7.12321 75.1234 6.87841 75.253 6.63361Z" fill="#3A3A43"/>
</svg>

