<svg width="32" height="32" viewBox="0 0 32 32" fill="none" xmlns="http://www.w3.org/2000/svg">
<g clip-path="url(#clip0_490_499)">
<path fill-rule="evenodd" clip-rule="evenodd" d="M8 17L8.00005 15L9.71216 14.4293C10.0558 14.3148 10.317 14.0357 10.4558 13.7011C10.5947 13.3664 10.6052 12.9888 10.4432 12.6648L9.63593 11.0503L11.0502 9.63614L12.6644 10.4432C12.9885 10.6053 13.3662 10.5948 13.7009 10.4559C14.0356 10.317 14.3147 10.0558 14.4293 9.71208L15 8L17 8.00005L17.5706 9.71203C17.6852 10.0558 17.9643 10.317 18.299 10.4559C18.6338 10.5947 19.0115 10.6053 19.3356 10.4432L20.9498 9.63607L22.364 11.0503L21.5569 12.6645C21.3948 12.9886 21.4053 13.3663 21.5442 13.701C21.683 14.0357 21.9443 14.3148 22.288 14.4294L24 15L24 17L22.2881 17.5707C21.9443 17.6853 21.683 17.9644 21.5442 18.2991C21.4053 18.6339 21.3948 19.0116 21.5568 19.3357L22.3639 20.9499L20.9497 22.3641L19.3354 21.5569C19.0113 21.3949 18.6336 21.4054 18.299 21.5442C17.9643 21.6831 17.6852 21.9443 17.5707 22.288L17 24.0001L15 24L14.4293 22.2879C14.3147 21.9442 14.0356 21.683 13.701 21.5442C13.3663 21.4053 12.9887 21.3948 12.6646 21.5569L11.0502 22.3641L9.63606 20.9498L10.4432 19.3355C10.6053 19.0114 10.5947 18.6337 10.4559 18.2991C10.317 17.9644 10.0558 17.6853 9.71208 17.5707L8 17ZM16 13C14.3419 13 13 14.3419 13 16C13 17.6582 14.3419 19 16 19C17.6582 19 19 17.6582 19 16C19 14.3419 17.6582 13 16 13Z" fill="#4C4C55"/>
</g>
<defs>
<clipPath id="clip0_490_499">
<rect width="16" height="16" fill="white" transform="translate(8 8)"/>
</clipPath>
</defs>
</svg>

